 http://www.imdb.com/title/tt1208650/
 
http://www.moviemeter.nl/film/54958

Nederland
Drama / Muziek
85 minuten

Geregisseerd door Jelle Nesna
Met Tygo Gernandt, Sanguita Akkrum en Thom Hoffman

De jonge en onzekere rechercheur Joz staat op het punt te trouwen met Maryam. Onverwachts krijgt hij een grote zaak toegewezen rond de moord op een prostituee. Zijn relatie komt op losse schroeven te staan wanneer hij door het onderzoek de verleidelijke Carmen ontmoet, een mooie vrijgevochten en ambitieuze jonge vrouw. Hij kan niet aan Carmen ontkomen en zet zijn toekomst op het spel.

Info:

General
Complete name                    : Carmen van het Noorden-AC3-5,1-DVDRip-2009.avi
Format                           : AVI
Format/Info                      : Audio Video Interleave
File size                        : 1.36 GiB
Duration                         : 1h 21mn
Overall bit rate                 : 2 376 Kbps
Writing application              : VirtualDubMod 1.5.4.1 (build 2178/release)
Writing library                  : VirtualDubMod build 2178/release

Video
ID                               : 0
Format                           : MPEG-4 Visual
Format profile                   : Simple@L3
Format settings, BVOP            : No
Format settings, QPel            : No
Format settings, GMC             : No warppoints
Format settings, Matrix          : Default (H.263)
Codec ID                         : XVID
Codec ID/Hint                    : XviD
Duration                         : 1h 21mn
Bit rate                         : 1 918 Kbps
Width                            : 704 pixels
Height                           : 384 pixels
Display aspect ratio             : 16:9
Frame rate                       : 25.000 fps
Resolution                       : 24 bits
Colorimetry                      : 4:2:0
Scan type                        : Progressive
Bits/(Pixel*Frame)               : 0.284
Stream size                      : 1.10 GiB (81%)
Writing library                  : XviD 1.1.2 (UTC 2006-11-01)

Audio
ID                               : 1
Format                           : AC-3
Format/Info                      : Audio Coding 3
Codec ID                         : 2000
Duration                         : 1h 21mn
Bit rate mode                    : Constant
Bit rate                         : 448 Kbps
Channel(s)                       : 6 channels
Channel positions                : Front: L C R, Surround: L R, LFE
Sampling rate                    : 48.0 KHz
Stream size                      : 263 MiB (19%)
Alignment                        : Split accross interleaves
Interleave, duration             : 40 ms (1.00 video frame)
Interleave, preload duration     : 500 ms

Veel plezier met deze film.